<?xml version="1.0" encoding="UTF-8"?>
<svg id="Layer_1" xmlns="http://www.w3.org/2000/svg" version="1.1" viewBox="0 0 836.44 204.48">
  <!-- Generator: Adobe Illustrator 29.7.1, SVG Export Plug-In . SVG Version: 2.1.1 Build 8)  -->
  <defs>
    <style>
      .st0 {
        fill: #12283a;
      }
    </style>
  </defs>
  <g>
    <path class="st0" d="M167.92,110.94v-1.22c5.71-.54,11.29-2.72,11.29-12.1V29.2c0-9.38-5.58-11.7-11.29-12.24v-1.22h39.03c22.44,0,34.41,8.98,34.41,22.03,0,10.06-7.21,18.36-21.22,21.22,17.41,2.86,25.98,12.92,25.98,25.02,0,14.01-12.1,26.93-36.99,26.93,0,0-41.21,0-41.21,0ZM196.21,58.58h6.12c14.82,0,21.49-6.53,21.49-20.26,0-12.24-5.98-20.26-22.44-20.26h-5.17v40.52ZM204.1,108.63c17.95,0,23.8-10.06,23.8-24.34,0-15.23-6.8-23.26-23.94-23.26h-7.75v47.6s7.89,0,7.89,0Z"/>
    <path class="st0" d="M273.87,98.15c0,8.98,5.03,11.15,10.06,11.56v1.22h-34.95v-1.22c5.03-.41,10.06-2.58,10.06-11.56V28.25c0-8.98-4.62-11.15-10.74-10.88v-1.22l24.48-7.21,1.09.41v88.8Z"/>
    <path class="st0" d="M321.06,103.19c-5.58,6.66-11.83,9.66-18.63,9.66-8.43,0-15.5-5.44-15.5-14.14s6.12-16.73,33.73-25.84v-9.52c0-10.06-2.86-14.14-8.3-14.14-4.49,0-6.66,2.99-8.02,11.42-.82,5.03-3.67,8.02-7.75,8.02s-6.94-2.99-6.94-7.07c0-7.62,8.7-14.28,23.12-14.28,15.78,0,22.71,7.21,22.71,20.67v28.56c0,6.39,1.5,8.98,4.62,8.98,2.58,0,4.35-1.63,6.66-5.17l1.22.82c-4.76,8.3-9.93,11.29-15.5,11.29s-10.06-3.14-11.42-9.26ZM320.65,101.01v-26.11c-14.14,6.12-18.09,12.24-18.09,20.67,0,7.34,3.54,10.34,8.02,10.34,3.27,0,6.53-1.5,10.07-4.9Z"/>
    <path class="st0" d="M374.5,49.74c-8.02,0-14.42,8.3-14.42,23.26,0,18.09,10.61,28.15,23.39,28.15,7.21,0,12.65-2.99,16.59-9.25l1.36.54c-4.35,13.19-12.51,20.4-24.62,20.4-16.86,0-28.97-13.19-28.97-31.96s12.24-33.59,30.6-33.59c13.46,0,21.22,7.21,21.22,13.6,0,4.22-3.26,7.75-7.48,7.75-3.13,0-6.53-1.9-7.75-6.12-2.03-7.07-2.84-12.78-9.92-12.78Z"/>
    <path class="st0" d="M427.68,98.15c0,7.48,3.26,11.29,9.38,11.7v1.09h-34.27v-1.22c5.03-.41,10.06-2.58,10.06-11.56V28.25c0-8.98-4.62-11.15-10.74-10.88v-1.22l24.48-7.21,1.09.41v88.8h0ZM451.34,110.94l-20.54-28.7v-.41l12.24-14.01c8.43-9.66,6.8-16.18.95-17.14v-1.08h27.06v1.22c-8.16.68-13.33,4.08-23.8,16.05l-5.44,6.12,18.22,25.16c6.8,9.38,8.7,10.88,12.65,11.56v1.22h-21.34Z"/>
    <path class="st0" d="M502.48,110.94h-32.64v-1.22c6.53-.68,13.06-6.66,19.58-23.66l27.06-71.4h2.72l30.33,80.24c3.4,8.98,8.57,14.42,14.42,14.82v1.22h-39.44v-1.22c7.75-.41,10.06-5.03,6.66-14.55l-5.44-15.23h-31.14l-.95,2.58c-6.66,17.82-2.86,26.66,8.84,27.2v1.22h0ZM510.36,37.5l-14.82,39.71h29.1l-14.28-39.71Z"/>
    <path class="st0" d="M564.22,110.94v-1.22c5.03-.41,10.06-2.58,10.06-11.56v-31.29c0-8.7-4.49-11.29-10.88-10.88v-1.22l24.34-7.21,1.09.41v15.5c5.3-9.93,12.65-16.46,19.04-16.46,5.03,0,8.02,3.67,8.02,8.16s-3.13,8.16-7.48,8.16c-5.03,0-7.34-5.44-10.88-5.44-2.99,0-6.12,3.94-8.43,9.38v30.19c0,8.98,3.54,11.97,8.98,12.38v1.09h-33.86Z"/>
    <path class="st0" d="M617.53,110.94v-1.22c5.03-.41,10.06-2.58,10.06-11.56v-31.29c0-8.7-4.49-11.29-10.88-10.88v-1.22l24.34-7.21,1.09.41v15.5c5.3-9.93,12.65-16.46,19.04-16.46,5.03,0,8.02,3.67,8.02,8.16s-3.13,8.16-7.48,8.16c-5.03,0-7.34-5.44-10.88-5.44-2.99,0-6.12,3.94-8.43,9.38v30.19c0,8.98,3.54,11.97,8.98,12.38v1.09h-33.86Z"/>
    <path class="st0" d="M668.39,80.34c0-18.36,14.01-33.05,31.01-33.05,18.5,0,31.01,14.14,31.01,32.5s-13.33,33.05-31.01,33.05-31.01-14.14-31.01-32.5ZM699.4,110.94c7.07,0,13.87-6.94,13.87-30.6,0-18.36-5.44-31.14-14.42-31.14-6.94,0-13.6,7.62-13.6,30.6,0,18.08,5.44,31.14,14.15,31.14Z"/>
    <path class="st0" d="M777.73,70.82l-15.5,41.21h-2.04l-21.49-48.28c-3.54-7.89-5.85-11.97-10.61-13.06v-1.09h29.65v1.09c-4.9.41-6.12,5.44-2.45,14.01l11.83,27.2,9.11-24.75-1.36-3.4c-3.81-9.52-7.21-12.1-11.83-13.06v-1.09h32.5v1.09c-6.66.41-8.02,5.03-5.03,12.65l10.88,28.15,7.21-18.77c5.17-13.6,3.81-20.54-6.12-22.03v-1.09h25.16v1.09c-5.03.41-9.93,5.71-15.78,20.81l-15.78,40.53h-2.04l-16.31-41.21Z"/>
  </g>
  <g>
    <path class="st0" d="M180.45,138.8h6.05v50.98h-6.05v-50.98Z"/>
    <path class="st0" d="M209.97,138.8h7.63l29.52,42.34h.14v-42.34h6.05v50.98h-7.63l-29.52-42.34h-.14v42.34h-6.05v-50.98Z"/>
    <path class="st0" d="M300.98,147.8c-1.01-1.63-2.35-2.82-4.03-3.56-1.68-.74-3.43-1.12-5.26-1.12-1.34,0-2.66.17-3.96.5-1.3.34-2.46.84-3.49,1.51s-1.86,1.56-2.48,2.66c-.62,1.1-.94,2.4-.94,3.89,0,1.15.18,2.17.54,3.06.36.89.95,1.69,1.76,2.41s1.92,1.39,3.31,2.02,3.1,1.25,5.11,1.87c1.97.62,3.88,1.3,5.72,2.02s3.48,1.63,4.9,2.74c1.41,1.1,2.54,2.48,3.38,4.14s1.26,3.73,1.26,6.23-.5,4.75-1.51,6.62-2.34,3.42-4,4.64c-1.65,1.22-3.56,2.14-5.72,2.74s-4.39.9-6.7.9c-1.49,0-2.98-.13-4.46-.4-1.49-.26-2.92-.67-4.28-1.22-1.37-.55-2.65-1.27-3.85-2.16s-2.23-1.98-3.1-3.28l5.18-4.25c1.1,1.87,2.64,3.29,4.61,4.25,1.97.96,4.05,1.44,6.26,1.44,1.29,0,2.6-.19,3.92-.58,1.32-.38,2.51-.95,3.56-1.69s1.92-1.67,2.59-2.77c.67-1.1,1.01-2.38,1.01-3.82,0-1.58-.27-2.87-.79-3.85-.53-.98-1.34-1.84-2.45-2.56-1.11-.72-2.5-1.37-4.18-1.94-1.68-.58-3.65-1.25-5.9-2.02-1.82-.58-3.5-1.24-5.04-1.98-1.54-.74-2.87-1.66-4-2.74s-2.02-2.38-2.66-3.89c-.65-1.51-.97-3.32-.97-5.44,0-2.45.48-4.58,1.44-6.41.96-1.82,2.26-3.35,3.89-4.57s3.48-2.15,5.54-2.77c2.06-.62,4.22-.94,6.48-.94,2.88,0,5.51.44,7.88,1.33,2.38.89,4.5,2.44,6.37,4.64l-4.94,4.35Z"/>
    <path class="st0" d="M365.85,170.34c0,2.79-.35,5.42-1.04,7.92-.7,2.5-1.8,4.69-3.31,6.59s-3.49,3.41-5.94,4.54c-2.45,1.13-5.42,1.69-8.93,1.69s-6.48-.56-8.93-1.69c-2.45-1.13-4.43-2.64-5.94-4.54s-2.62-4.09-3.31-6.59c-.7-2.5-1.04-5.14-1.04-7.92v-31.54h6.05v30.67c0,2.06.22,4.06.65,5.98s1.15,3.62,2.16,5.11,2.35,2.68,4.03,3.56c1.68.89,3.79,1.33,6.34,1.33s4.66-.44,6.34-1.33,3.02-2.08,4.03-3.56c1.01-1.49,1.73-3.19,2.16-5.11s.65-3.91.65-5.98v-30.67h6.05v31.54h-.02Z"/>
    <path class="st0" d="M389.11,138.8h13.03c2.45,0,4.88.14,7.31.43s4.6.91,6.52,1.87,3.48,2.37,4.68,4.21c1.2,1.85,1.8,4.36,1.8,7.52,0,3.74-1.13,6.77-3.38,9.07-2.26,2.3-5.38,3.77-9.36,4.39l14.47,23.47h-7.42l-13.82-22.9h-7.78v22.9h-6.05v-50.96h0ZM395.16,161.26h5.4c1.68,0,3.42-.05,5.22-.14,1.8-.1,3.46-.41,4.97-.94s2.76-1.36,3.74-2.48c.98-1.13,1.48-2.75,1.48-4.86,0-1.82-.36-3.29-1.08-4.39s-1.67-1.96-2.84-2.56c-1.18-.6-2.5-1-3.96-1.19s-2.94-.29-4.43-.29h-8.5v16.85h0Z"/>
    <path class="st0" d="M460.46,138.8h5.69l21.67,50.98h-7.06l-5.18-12.53h-25.49l-5.26,12.53h-6.84l22.47-50.98ZM463.19,146.58h-.14l-10.58,25.06h20.81l-10.09-25.06Z"/>
    <path class="st0" d="M505.39,138.8h7.63l29.52,42.34h.14v-42.34h6.05v50.98h-7.63l-29.52-42.34h-.14v42.34h-6.05v-50.98h0Z"/>
    <path class="st0" d="M607.91,149.31c-1.54-2.06-3.43-3.61-5.69-4.64s-4.61-1.55-7.06-1.55c-2.83,0-5.44.58-7.81,1.73s-4.43,2.7-6.16,4.64-3.07,4.2-4.03,6.77-1.44,5.24-1.44,8.03c0,2.98.48,5.75,1.44,8.32.96,2.57,2.29,4.8,4,6.7,1.7,1.9,3.74,3.4,6.12,4.5s5,1.66,7.88,1.66c3.12,0,5.9-.61,8.35-1.84,2.45-1.22,4.58-2.99,6.41-5.29l4.54,3.82c-2.3,3.07-5.08,5.33-8.32,6.77s-6.9,2.16-10.98,2.16c-3.65,0-7.06-.67-10.22-2.02-3.17-1.34-5.92-3.2-8.24-5.58-2.33-2.38-4.15-5.2-5.47-8.46-1.32-3.26-1.98-6.84-1.98-10.73s.64-7.25,1.91-10.51c1.27-3.26,3.06-6.09,5.36-8.5,2.3-2.4,5.04-4.29,8.21-5.69,3.17-1.39,6.65-2.09,10.44-2.09,3.46,0,6.78.62,9.97,1.87,3.19,1.25,5.87,3.29,8.03,6.12l-5.26,3.81Z"/>
    <path class="st0" d="M633.69,138.8h32.04v5.62h-25.99v15.98h24.26v5.62h-24.26v18.14h27.29v5.62h-33.34v-50.98h0Z"/>
  </g>
  <path class="st0" d="M8.72,8.94v182.13h122.49V8.94H8.72ZM125.56,185.06H14.73V14.95h110.83v170.11Z"/>
  <path class="st0" d="M21.88,22.37v155.28h96.52V22.37H21.88ZM43.83,99.93c.02-.1.1-.2.21-.41,7.02,4.02,13.25,8.72,18.95,13.93.1-.05.19-.11.29-.16-1.02-1.43-1.94-2.92-3.07-4.29-2.04-2.48-4.05-5-6.36-7.3-1.89-1.88-4.17-3.51-6.34-5.18-3.14-2.42-3.17-2.39-2.5-5.88.16-.82.33-1.64.57-2.82,5.52,3.7,10.81,7.26,16.11,10.81.08-.05.16-.11.24-.16-1.96-2.21-3.87-4.45-5.88-6.62-2.8-3.01-5.66-5.97-8.53-8.94-.53-.55-.74-1.04-.52-1.76.45-1.47.76-2.97,1.21-4.77,4.98,3.46,9.75,6.77,14.52,10.09.07-.05.15-.1.22-.14-1.56-1.79-3.07-3.61-4.71-5.35-2.77-2.93-5.6-5.82-8.47-8.68-.7-.7-.9-1.31-.52-2.16,1.24-2.81,2.45-5.63,3.6-8.47,1.38-3.42,2.69-6.85,4.03-10.28.14-.35.32-.7.57-1.24,2.76,1.97,5.41,3.85,8.06,5.74.07-.04.13-.07.2-.11-.12-.25-.21-.52-.36-.76-1.75-2.68-3.54-5.33-5.22-8.04-.29-.46-.32-1.16-.15-1.67.36-1.06.83-2.11,1.44-3.08.58-.92,1.38-1.75,2.12-2.59,1.6-1.82,3.16-3.64,2.56-6.12-.07-.3.11-.67.27-.97,1.07-2.02,2.17-4.02,3.28-6.07.17.07.34.09.37.16,2.12,4.13,4.26,8.25,6.32,12.41.45.9.52,1.94.94,2.86.56,1.24,1.23,2.44,1.93,3.62.64,1.09,1.51,2.09,2.03,3.21,1.67,3.67,3.26,7.36,4.79,11.07.18.44.03,1.12-.27,1.53-2.09,2.91-4.26,5.77-6.4,8.66-.18.24-.32.51-.25.94,2.97-2.08,5.93-4.17,9.07-6.37.94,2.28,1.88,4.41,2.65,6.58.12.35-.44.94-.8,1.34-4.07,4.45-8.17,8.88-12.25,13.32-.15.17-.27.36-.24.66,4.64-3.27,9.27-6.55,14.15-9.99.5,1.98,1,3.7,1.32,5.45.07.37-.5.85-.85,1.24-4.22,4.64-8.46,9.27-12.68,13.91-.26.29-.49.61-.58,1.03,5.03-3.29,10.05-6.58,15.3-10.02.4,2.11.8,4.01,1.1,5.92.04.24-.38.57-.67.79-1.99,1.51-4.16,2.89-5.96,4.54-2.45,2.24-4.72,4.63-6.88,7.07-1.76,1.98-3.24,4.14-4.84,6.22-.13.17-.2.38-.2.63,5.59-5.17,11.94-9.58,18.92-13.68.41,1.9.79,3.64,1.15,5.39.4,1.99.71,4,1.2,5.98.21.83-.12,1.26-.83,1.72-2.52,1.64-4.99,3.32-7.51,4.95-5.26,3.41-10.54,6.79-15.82,10.19-.17.11-.36.2-.69.38-.04-.39-.1-.67-.1-.95,0-7.1-.01-14.2.03-21.29,0-.51.3-1.1.69-1.51,1.35-1.43,2.8-2.8,4.09-4.38-1.56.59-3.12,1.19-4.8,1.82-1.08-19.27-2.16-38.45-3.24-57.62-1.57,27.84-3.79,55.7-2.97,83.86-.55-.28-.79-.37-.98-.49-7.82-5.06-15.64-10.12-23.43-15.21-.39-.25-.8-.82-.74-1.18.64-3.78,1.39-7.54,2.11-11.31ZM97.35,119.9c-.39,2.25-1.02,4.48-1.1,6.72-.1,2.74-1.59,4.32-4.38,5.66-5.16,2.47-10.09,5.28-15.13,7.94-.49.26-1.01.48-1.78.84,0-2.77-.02-5.32.03-7.86,0-.27.3-.63.58-.8,7.15-4.18,14.32-8.34,21.49-12.5.04,0,.1,0,.29,0ZM66.54,156.02v-1.69h6.95v1.69h-6.95ZM73.48,158.05v1.53h-6.86v-1.53h6.86ZM66.09,149.81c1.33-1.72,2.53-3.26,3.83-4.94,1.32,1.7,2.52,3.25,3.83,4.94h-7.66ZM65.98,142.77c1.35-1.75,2.59-3.35,3.93-5.08,1.36,1.82,2.52,3.38,3.79,5.08h-7.72ZM65.81,135.6c1.39-1.76,2.65-3.35,4.03-5.1,1.38,1.76,2.61,3.33,4,5.1h-8.03ZM64.97,139.53c0,.4-.05.8-.09,1.39-1.83-.95-3.48-1.8-5.12-2.65-4.89-2.56-9.8-5.12-14.66-7.72-.49-.26-.92-.83-1.02-1.31-.61-3.11-1.13-6.24-1.67-9.36.11-.04.23-.08.34-.13,5.6,3.25,11.2,6.49,16.79,9.75,1.49.87,2.94,1.8,4.46,2.63.72.4,1.02.83,1,1.57-.09,1.95-.03,3.89-.03,5.83ZM40.39,136.28c2.99,0,5.97,0,8.96,0,.25,0,.52.13.75.26,4.5,2.45,8.99,4.92,13.51,7.35,1.02.55,1.51,1.12,1.4,2.21-.16,1.51-.04,3.04-.04,4.75-9.18-3.84-17.65-8.19-24.71-14.26.04-.12.09-.22.13-.32ZM73.41,173.17c-2.16.48-4.64.46-6.84.08-1.16-.2-1.99-1.53-1.72-3,.51-2.82.75-5.67,1.1-8.53h8.1c.3,2.36.61,4.7.91,7.04.04.34,0,.71.14,1.02.71,1.6-.22,3.06-1.69,3.39ZM75.01,150.89c0-1.94-.12-3.73.08-5.49.06-.53.93-1.1,1.58-1.46,2.67-1.52,5.39-2.98,8.09-4.46,1.22-.67,2.51-1.25,3.64-2.01,1.48-.98,3.06-1.33,4.93-1.23,2.11.11,4.23.02,6.71.02-7.41,6.29-15.84,10.74-25.03,14.63Z"/>
</svg>