<?xml version="1.0" encoding="UTF-8"?>
<svg id="Layer_1" xmlns="http://www.w3.org/2000/svg" version="1.1" viewBox="0 0 32 32">
  <!-- Generator: Adobe Illustrator 30.1.0, SVG Export Plug-In . SVG Version: 2.1.1 Build 136)  -->
  <defs>
    <style>
      .st0 {
        display: none;
        fill: #12283a;
      }

      .st1 {
        fill: #fff;
      }
    </style>
  </defs>
  <rect class="st0" x="-613.14" y="-601.28" width="1200" height="1200"/>
  <g>
    <path class="st1" d="M6.44,1.78v28.44h19.13V1.78H6.44ZM24.68,29.28H7.37V2.72h17.31v26.56Z"/>
    <path class="st1" d="M8.46,3.88v24.25h15.07V3.88h-15.07ZM11.89,15.99s.02-.03.03-.06c1.1.63,2.07,1.36,2.96,2.18.02,0,.03-.02.05-.03-.16-.22-.3-.46-.48-.67-.32-.39-.63-.78-.99-1.14-.3-.29-.65-.55-.99-.81-.49-.38-.49-.37-.39-.92.02-.13.05-.26.09-.44.86.58,1.69,1.13,2.52,1.69.01,0,.03-.02.04-.03-.31-.35-.6-.7-.92-1.03-.44-.47-.88-.93-1.33-1.4-.08-.09-.12-.16-.08-.28.07-.23.12-.46.19-.74.78.54,1.52,1.06,2.27,1.58.01,0,.02-.01.03-.02-.24-.28-.48-.56-.73-.83-.43-.46-.87-.91-1.32-1.36-.11-.11-.14-.2-.08-.34.19-.44.38-.88.56-1.32.22-.53.42-1.07.63-1.61.02-.06.05-.11.09-.19.43.31.84.6,1.26.9.01,0,.02-.01.03-.02-.02-.04-.03-.08-.06-.12-.27-.42-.55-.83-.82-1.26-.04-.07-.05-.18-.02-.26.06-.17.13-.33.23-.48.09-.14.22-.27.33-.41.25-.28.49-.57.4-.96-.01-.05.02-.1.04-.15.17-.31.34-.63.51-.95.03.01.05.01.06.02.33.64.67,1.29.99,1.94.07.14.08.3.15.45.09.19.19.38.3.57.1.17.24.33.32.5.26.57.51,1.15.75,1.73.03.07,0,.17-.04.24-.33.45-.67.9-1,1.35-.03.04-.05.08-.04.15.46-.33.93-.65,1.42-.99.15.36.29.69.41,1.03.02.05-.07.15-.13.21-.64.69-1.28,1.39-1.91,2.08-.02.03-.04.06-.04.1.72-.51,1.45-1.02,2.21-1.56.08.31.16.58.21.85.01.06-.08.13-.13.19-.66.72-1.32,1.45-1.98,2.17-.04.05-.08.09-.09.16.78-.51,1.57-1.03,2.39-1.57.06.33.12.63.17.92,0,.04-.06.09-.1.12-.31.24-.65.45-.93.71-.38.35-.74.72-1.07,1.1-.27.31-.51.65-.76.97-.02.03-.03.06-.03.1.87-.81,1.86-1.5,2.96-2.14.06.3.12.57.18.84.06.31.11.62.19.93.03.13-.02.2-.13.27-.39.26-.78.52-1.17.77-.82.53-1.65,1.06-2.47,1.59-.03.02-.06.03-.11.06,0-.06-.02-.1-.02-.15,0-1.11,0-2.22,0-3.32,0-.08.05-.17.11-.24.21-.22.44-.44.64-.68-.24.09-.49.19-.75.28-.17-3.01-.34-6-.51-9-.25,4.35-.59,8.7-.46,13.1-.09-.04-.12-.06-.15-.08-1.22-.79-2.44-1.58-3.66-2.37-.06-.04-.12-.13-.11-.18.1-.59.22-1.18.33-1.76ZM20.25,19.11c-.06.35-.16.7-.17,1.05-.02.43-.25.68-.68.88-.81.39-1.58.82-2.36,1.24-.08.04-.16.08-.28.13,0-.43,0-.83,0-1.23,0-.04.05-.1.09-.12,1.12-.65,2.24-1.3,3.36-1.95,0,0,.01,0,.04,0ZM15.44,24.75v-.26h1.09v.26h-1.09ZM16.52,25.06v.24h-1.07v-.24h1.07ZM15.37,23.78c.21-.27.39-.51.6-.77.21.27.39.51.6.77h-1.2ZM15.35,22.68c.21-.27.4-.52.61-.79.21.28.39.53.59.79h-1.2ZM15.32,21.56c.22-.28.41-.52.63-.8.22.27.41.52.62.8h-1.25ZM15.19,22.17c0,.06,0,.13-.01.22-.29-.15-.54-.28-.8-.41-.76-.4-1.53-.8-2.29-1.21-.08-.04-.14-.13-.16-.21-.1-.49-.18-.97-.26-1.46.02,0,.04-.01.05-.02.87.51,1.75,1.01,2.62,1.52.23.14.46.28.7.41.11.06.16.13.16.25-.01.3,0,.61,0,.91ZM11.35,21.66c.47,0,.93,0,1.4,0,.04,0,.08.02.12.04.7.38,1.4.77,2.11,1.15.16.09.24.18.22.34-.02.24,0,.47,0,.74-1.43-.6-2.76-1.28-3.86-2.23l.02-.05ZM16.51,27.42c-.34.07-.72.07-1.07.01-.18-.03-.31-.24-.27-.47.08-.44.12-.89.17-1.33h1.26c.05.37.09.73.14,1.1,0,.05,0,.11.02.16.11.25-.03.48-.26.53ZM16.76,23.95c0-.3-.02-.58.01-.86,0-.08.15-.17.25-.23.42-.24.84-.47,1.26-.7.19-.1.39-.2.57-.31.23-.15.48-.21.77-.19.33.02.66,0,1.05,0-1.16.98-2.47,1.68-3.91,2.28Z"/>
  </g>
</svg>