<svg id="Capa_1" xmlns="http://www.w3.org/2000/svg" height="79" width="248" viewBox="0 0 248 79">
    <style>.st0{fill:#3B5C8B;} .st1{fill:#5480C0;} .st2{fill:#404041;}</style>
    <path class="st0" d="M139.5 40c-1.4-.4-24.1-8.7-25-8.7l-2.3-.2-2.3 1.4c-1.4.8-3.9 2.5-7.2 4.9l-2.9 2.3h-1l-3.3-5 .2-1L111 21.2l1.6-.4c1.7.6 24.6 9.1 25.8 9.3.8 0 3.1-.8 4.3-1.6 1.6-1 3.5-2.3 5.6-3.9 1.9-1.6 3.3-2.5 4.3-3.3h.8l3.3 5-.2 1-15.3 12.4-1.7.3z"/><path class="st1" d="M94.5 22.7l-2.9-4.3v-1l16.9-15.5 1.6-.6c1.9.6 25 8.5 26.2 8.5.8.2 2.7-.6 4.3-1.7 1.6-1 8.2-6.6 9.9-8.2h.6l4.5 7.4v1l-15.5 12.4-1.6.2c-1.6-.4-24.5-8.5-25.4-8.7l-2.3.2-2.3 1.6c-1.4.8-10.9 7.6-12.8 8.9-.2 0-1.2-.2-1.2-.2z"/><path class="st2" d="M187.6 61.3c-1.4-1.2-3.3-1.6-5.4-1.6-2.9 0-5.4.8-7.8 2.3l1.7 3.7c.8-.6 1.6-1 2.5-1.4 1-.4 1.9-.6 2.9-.6 2.1 0 3.1 1 3.1 2.9v.4h-3.9c-2.3 0-4.3.4-5.6 1.4s-2.1 2.3-2.1 4.3.6 3.5 1.9 4.5c1.4 1.2 2.9 1.7 4.9 1.7s3.7-.8 4.9-2.5v2.3h4.9V66.8c.2-2.5-.6-4.3-2-5.5zm-3.1 10.1c0 1-.4 1.7-1 2.3-.8.6-1.6.8-2.3.8s-1.6-.2-2.1-.6c-.6-.4-.8-.8-.8-1.6 0-1.4 1-1.9 3.1-1.9h3.3v1h-.2zM38.2 61.3c-1.4-1.2-3.3-1.6-5.4-1.6-2.9 0-5.4.8-7.8 2.3l1.7 3.7c.8-.6 1.6-1 2.5-1.4s1.9-.6 2.9-.6c2.1 0 3.1 1 3.1 2.9v.4h-3.9c-2.3 0-4.3.4-5.6 1.4s-2.1 2.3-2.1 4.3.6 3.5 1.9 4.5c1.4 1.2 2.9 1.7 4.9 1.7s3.7-.8 4.9-2.5v2.3h4.9V66.8c.2-2.5-.6-4.3-2-5.5zm-3.1 10.1c0 1-.4 1.7-1 2.3-.8.6-1.6.8-2.3.8-1 0-1.6-.2-2.1-.6-.6-.4-.8-.8-.8-1.6 0-1.4 1-1.9 3.1-1.9h3.3v1h-.2zm202-10.1c-1.4-1.2-3.3-1.7-5.4-1.7-2.9 0-5.4.8-7.8 2.3l1.7 3.7c.8-.6 1.6-1 2.5-1.4 1-.4 1.9-.6 2.9-.6 2.1 0 3.1 1 3.1 2.9v.2h-3.9c-2.3 0-4.3.4-5.6 1.4-1.4 1-2.1 2.3-2.1 4.3 0 1.9.6 3.5 1.9 4.5 1.4 1.2 2.9 1.7 4.9 1.7s3.7-.8 4.9-2.5v2.3h4.9V66.6c.2-2.3-.6-4.1-2-5.3zM234 71.4c0 1-.4 1.7-1 2.3-.8.6-1.6.8-2.3.8-1 0-1.6-.2-2.1-.6-.6-.4-.8-.8-.8-1.6 0-1.4 1-1.9 3.1-1.9h3.3v1h-.2zM220.1 73c-.6.8-1.6 1.4-2.5 1.4-.6 0-1-.2-1.4-.6-.4-.4-.6-1-.6-1.7v-8.3h4.5V60h-4.5v-5.4h-5.2V60h-2.1v3.7h2.1v8.5c0 1.9.6 3.7 1.7 4.9 1.2 1.2 2.7 1.7 4.5 1.7 1.7 0 3.3-.8 5-2.1l-1.5-3.7zm-15-4.1c-.8-.4-1.4-.8-1.7-1-.6-.2-1.4-.4-2.5-.8-1.2-.4-1.9-.8-2.5-1-.6-.2-.8-.6-.8-1.2 0-.8.8-1.4 2.3-1.4 1.6 0 3.1.6 4.9 1.6l1.7-3.5c-2.1-1.4-4.3-2.1-6.4-2.1-2.1 0-3.9.6-5.2 1.6-1.4 1.2-2.1 2.5-2.1 4.3s.8 2.9 2.1 3.9c.8.4 1.4.8 1.7 1 .6.2 1.4.6 2.3.8 1 .4 1.7.6 2.3 1 .6.4.8.8.8 1.2 0 .4-.2.8-.6 1-.4.2-1 .4-1.6.4-2.1 0-4.3-.8-6.2-2.3l-1.6 4.1c1 .8 2.1 1.4 3.5 1.7 1.6.6 2.9.8 4.3.8 2.1 0 3.7-.6 5-1.6 1.4-1.2 1.9-2.5 1.9-4.5.4-2.1-.2-3.2-1.6-4zM12.4 73.8c2.7 0 4.9-1 6.4-3.1l3.5 3.5c-2.7 3.1-6 4.7-9.7 4.7s-6.8-1.2-9.1-3.5C1.2 73 0 70.1 0 66.4c0-3.5 1.2-6.6 3.7-8.9C6 55.1 9.1 54 12.6 54c3.9 0 7.2 1.6 9.9 4.5l-3.3 3.7C17.5 60 15.3 59 12.8 59c-1.9 0-3.7.6-5.2 1.9-1.4 1.4-2.1 3.1-2.1 5.2 0 2.3.6 4.1 1.9 5.4 1.5 1.5 3.1 2.3 5 2.3zm42.1-14c2.3 0 4.3 1 5.8 2.7 1.7 1.7 2.5 4.1 2.5 6.8s-.8 5-2.5 7c-1.7 1.9-3.7 2.7-5.8 2.7s-4.1-1-5.4-2.7v2.5h-5.2V53h5.2v9.1c1.4-1.5 3.1-2.3 5.4-2.3zm-5.6 9.5c0 1.6.4 2.7 1.2 3.7.8 1 1.9 1.4 3.1 1.4 1.2 0 2.3-.4 3.1-1.4 1-1 1.4-2.1 1.4-3.7s-.4-2.7-1.4-3.7c-.8-1-1.9-1.6-3.1-1.6-1.2 0-2.3.6-3.1 1.6-.8 1-1.2 2.1-1.2 3.7zm26.4-4.7c-1.6 0-2.7.6-3.5 1.6-.8 1.2-1.2 2.5-1.2 4.3v8h-5.2V60h5.2v2.5c.6-.8 1.6-1.4 2.5-1.9s1.9-.8 3.1-.8v4.9h-.9zm3.7-6.9c-.6-.6-1-1.4-1-2.1 0-.8.4-1.6 1-2.1.6-.6 1.4-1 2.1-1 .8 0 1.6.4 2.1 1 .6.6 1 1.4 1 2.1 0 .8-.4 1.6-1 2.1-.6.6-1.4 1-2.1 1-1-.1-1.5-.5-2.1-1zm4.6 20.7h-5.2V60h5.2v18.4zm8.8 0h-5V53h5.2v25.4h-.2zm8.9 0h-5.2V53h5.2v25.4zm22.1-9.1c0 2.7-1 4.9-2.7 6.8-1.9 1.7-4.3 2.7-7 2.7s-5-1-7-2.7c-1.9-1.7-2.7-4.1-2.7-6.8s1-4.9 2.7-6.8c1.9-1.7 4.3-2.7 7-2.7s5 1 7 2.7c1.7 1.8 2.7 4.1 2.7 6.8zm-14.3 0c0 1.6.4 2.7 1.4 3.7.8 1 1.9 1.4 3.3 1.4s2.5-.4 3.3-1.4c.8-1 1.4-2.1 1.4-3.7s-.4-2.7-1.4-3.7c-.8-1-1.9-1.4-3.3-1.4s-2.5.4-3.3 1.4c-1.1 1-1.4 2.1-1.4 3.7zm32.2 4.5c2.7 0 4.9-1 6.4-3.1l3.5 3.5c-2.7 3.1-6 4.7-9.7 4.7s-6.8-1.2-9.1-3.5-3.5-5.2-3.5-8.9c0-3.5 1.2-6.6 3.7-8.9 2.5-2.3 5.4-3.5 8.9-3.5 3.9 0 7.2 1.6 9.9 4.5l-3.3 3.7c-1.7-2.1-3.9-3.1-6.4-3.1-1.9 0-3.7.6-5.2 1.9-1.4 1.4-2.1 3.1-2.1 5.2 0 2.3.6 4.1 1.9 5.4 1.5 1.3 3 2.1 5 2.1zm30.2-4.5c0 2.7-1 4.9-2.7 6.8-1.9 1.7-4.3 2.7-7 2.7s-5-1-7-2.7-2.7-4.1-2.7-6.8 1-4.9 2.7-6.8c1.9-1.7 4.3-2.7 7-2.7s5 1 7 2.7c1.8 1.8 2.7 4.1 2.7 6.8zm-14.3 0c0 1.6.4 2.7 1.4 3.7.8 1 1.9 1.4 3.3 1.4s2.5-.4 3.3-1.4c.8-1 1.4-2.1 1.4-3.7s-.4-2.7-1.4-3.7c-.8-1-1.9-1.4-3.3-1.4s-2.5.4-3.3 1.4c-1 1-1.4 2.1-1.4 3.7zm90.8 9.1h-5.2V53h5.2v25.4z"/>
</svg>